# xmcd CD database file
#
# Track frame offsets:
#	151
#	27045
#	44876
#	72429
#	93664
#	115499
#	134946
#	168164
#	199779
#	228561
#	253859
#	275586
#	301783
#	324873
#
# Disc length: 4589 seconds
#
# Revision: 0
# Processed by: cddbd v1.5.1PL0 Copyright (c) Steve Scherf et al.
# Submitted via: CDex 1.51
#
DISCID=d311eb0e
DTITLE=Utada Hikaru - Remix: Fly Me to The Moon
DYEAR=1900
DGENRE=Blues
TTITLE0=Fly me to the moon - mike brown remix
TTITLE1=fly me to the moon - james mcquade remix
TTITLE2=fly me to the moon - vc2's club mix
TTITLE3=fly me to the moon - bob allecca remix
TTITLE4=movin' on without you - tribal mix
TTITLE5=first love - featuring david sanborn
TTITLE6=time will tell-inst
TTITLE7=give me a reason -inst
TTITLE8=in my room-inst
TTITLE9=b and c -inst
TTITLE10=never let go 0inst
TTITLE11=automatic -inst
TTITLE12=automatic -c.m. version
TTITLE13=first love -c.m. version
EXTD=
EXTT0=
EXTT1=
EXTT2=
EXTT3=
EXTT4=
EXTT5=
EXTT6=
EXTT7=
EXTT8=
EXTT9=
EXTT10=
EXTT11=
EXTT12=
EXTT13=
PLAYORDER=
